<svg xmlns="http://www.w3.org/2000/svg" viewBox="0 0 100 100" fill="none" stroke="#333" stroke-width="1.5" stroke-linecap="round" stroke-linejoin="round">
  <!-- dahlia - many layered petals radiating from center -->
  <!-- outer petals -->
  <path d="M50 12 C46 20 46 28 48 34 C50 36 52 34 54 28 C56 20 54 12 50 12"/>
  <path d="M76 20 C70 24 66 30 64 36 C64 38 66 38 70 34 C74 28 78 22 76 20"/>
  <path d="M86 44 C78 42 72 42 66 44 C64 46 66 48 72 48 C78 48 84 46 86 44"/>
  <path d="M78 72 C74 66 68 62 64 60 C62 60 62 62 64 66 C68 72 72 76 78 72"/>
  <path d="M50 82 C52 74 52 68 52 62 C50 60 48 62 48 68 C46 74 48 82 50 82"/>
  <path d="M22 72 C26 66 30 62 36 60 C38 60 38 62 36 66 C32 72 28 76 22 72"/>
  <path d="M14 44 C22 42 28 42 34 44 C36 46 34 48 28 48 C22 48 16 46 14 44"/>
  <path d="M24 20 C28 24 34 30 36 36 C36 38 34 38 30 34 C26 28 22 22 24 20"/>
  <!-- inner petals (smaller) -->
  <path d="M50 24 C48 30 48 34 50 38 C52 34 52 30 50 24"/>
  <path d="M66 30 C62 34 60 38 60 42 C64 40 66 36 66 30"/>
  <path d="M72 48 C66 48 62 48 60 50 C62 52 66 52 72 50"/>
  <path d="M64 66 C62 62 60 58 58 56 C56 58 58 62 62 66"/>
  <path d="M50 70 C50 64 50 60 50 56 C48 60 48 64 50 70"/>
  <path d="M36 64 C38 60 40 56 42 54 C40 56 38 60 36 64"/>
  <path d="M28 48 C34 48 38 48 40 50 C38 52 34 52 28 50"/>
  <path d="M36 30 C38 34 40 38 42 42 C40 38 38 34 36 30"/>
  <!-- center -->
  <circle cx="50" cy="46" r="8"/>
  <!-- stem -->
  <path d="M50 54 L50 90" stroke-width="2"/>
  <!-- leaves on stem -->
  <path d="M50 70 C42 64 36 60 30 58" stroke-width="1.5"/>
  <path d="M50 78 C58 72 64 68 70 66" stroke-width="1.5"/>
</svg>
