<svg xmlns="http://www.w3.org/2000/svg" viewBox="0 0 100 100" fill="none" stroke="#333" stroke-width="1.5" stroke-linecap="round" stroke-linejoin="round">
  <!-- Mother's Day - carnation flower -->
  <!-- carnation head (ruffled petals) -->
  <path d="M40 28 C38 22 36 16 40 14 C44 16 42 22 44 26"/>
  <path d="M44 26 C42 20 42 14 46 12 C50 14 48 20 48 24"/>
  <path d="M48 24 C48 18 50 12 54 12 C56 14 56 20 54 24"/>
  <path d="M54 24 C54 18 58 14 60 16 C62 20 58 24 56 28"/>
  <path d="M56 28 C58 22 62 18 64 20 C66 24 62 28 58 30"/>
  <path d="M58 30 C62 26 64 24 66 28 C66 32 62 34 58 34"/>
  <path d="M40 28 C36 24 34 22 34 26 C34 30 38 32 42 32"/>
  <path d="M42 32 C38 30 34 30 34 34 C36 38 40 36 44 34"/>
  <path d="M44 34 C40 36 40 38 44 40 C48 40 50 38 50 36"/>
  <path d="M50 36 C50 38 52 40 56 40 C60 38 60 36 58 34"/>
  <!-- calyx -->
  <path d="M44 40 L44 46 M50 40 L50 46 M56 40 L56 46" stroke-width="1"/>
  <path d="M42 46 L58 46" stroke-width="1.5"/>
  <!-- stem -->
  <path d="M50 46 L50 86"/>
  <!-- leaves -->
  <path d="M50 58 C44 52 34 50 28 54" stroke-width="1.3"/>
  <path d="M50 58 C46 56 38 56 32 58" stroke-width="1"/>
  <path d="M50 70 C56 64 66 62 72 66" stroke-width="1.3"/>
  <path d="M50 70 C54 68 62 68 68 70" stroke-width="1"/>
  <!-- ribbon -->
  <path d="M44 48 C40 50 38 54 40 56 C42 54 44 52 46 52" stroke-width="1.2"/>
  <path d="M56 48 C60 50 62 54 60 56 C58 54 56 52 54 52" stroke-width="1.2"/>
</svg>