<svg xmlns="http://www.w3.org/2000/svg" viewBox="0 0 100 100" fill="none" stroke="#333" stroke-width="1.5" stroke-linecap="round" stroke-linejoin="round">
  <!-- spider lily / red spider lily - distinctive curling petals -->
  <!-- long curving petals radiating from center -->
  <path d="M50 28 C48 20 44 10 42 6 C40 4 42 8 44 14"/>
  <path d="M50 28 C52 20 56 10 58 6 C60 4 58 8 56 14"/>
  <path d="M50 28 C58 24 66 16 70 12 C72 10 68 14 64 18"/>
  <path d="M50 28 C58 32 66 36 72 36 C74 36 70 34 66 32"/>
  <path d="M50 28 C54 36 58 46 58 50 C58 52 56 48 54 44"/>
  <path d="M50 28 C46 36 42 46 42 50 C42 52 44 48 46 44"/>
  <path d="M50 28 C42 32 34 36 28 36 C26 36 30 34 34 32"/>
  <path d="M50 28 C42 24 34 16 30 12 C28 10 32 14 36 18"/>
  <!-- long stamens -->
  <path d="M50 28 L46 14" stroke-width="0.8"/><circle cx="46" cy="13" r="1.2" fill="#333"/>
  <path d="M50 28 L54 14" stroke-width="0.8"/><circle cx="54" cy="13" r="1.2" fill="#333"/>
  <path d="M50 28 L62 18" stroke-width="0.8"/><circle cx="62" cy="17" r="1.2" fill="#333"/>
  <path d="M50 28 L38 18" stroke-width="0.8"/><circle cx="38" cy="17" r="1.2" fill="#333"/>
  <!-- tall straight stem (no leaves - characteristic of higanbana) -->
  <path d="M50 36 L50 92"/>
</svg>