<svg xmlns="http://www.w3.org/2000/svg" viewBox="0 0 100 100" fill="none" stroke="#333" stroke-width="1.5" stroke-linecap="round" stroke-linejoin="round">
  <!-- rhinoceros beetle - large horn, thick body -->
  <!-- horn -->
  <path d="M50 14 C48 18 44 22 42 28" stroke-width="2"/>
  <path d="M50 14 C50 20 48 24 46 28"/>
  <path d="M50 14 C52 16 54 14 56 12" stroke-width="1.5"/>
  <!-- head -->
  <path d="M36 28 C36 24 42 20 50 20 C58 20 64 24 64 28 L64 36 C64 38 58 40 50 40 C42 40 36 38 36 36Z"/>
  <!-- small horn on head -->
  <path d="M42 28 C40 24 38 20 36 18" stroke-width="1.5"/>
  <!-- eyes -->
  <circle cx="42" cy="30" r="2.5" fill="#333"/>
  <circle cx="58" cy="30" r="2.5" fill="#333"/>
  <!-- pronotum -->
  <path d="M32 40 C32 38 38 36 50 36 C62 36 68 38 68 40 L70 50 C70 52 62 54 50 54 C38 54 30 52 30 50Z" stroke-width="1.8"/>
  <!-- elytra (wing covers) -->
  <path d="M30 54 C28 60 28 70 32 78 C38 86 46 88 50 88 C54 88 62 86 68 78 C72 70 72 60 70 54"/>
  <path d="M50 54 L50 88" stroke-width="1"/>
  <!-- legs -->
  <path d="M34 44 C26 42 20 44 16 48" stroke-width="1.3"/>
  <path d="M16 48 L12 52" stroke-width="1.3"/>
  <path d="M32 56 C24 56 18 60 14 64" stroke-width="1.3"/>
  <path d="M14 64 L10 68" stroke-width="1.3"/>
  <path d="M34 68 C28 70 22 74 20 80" stroke-width="1.3"/>
  <path d="M66 44 C74 42 80 44 84 48" stroke-width="1.3"/>
  <path d="M84 48 L88 52" stroke-width="1.3"/>
  <path d="M68 56 C76 56 82 60 86 64" stroke-width="1.3"/>
  <path d="M86 64 L90 68" stroke-width="1.3"/>
  <path d="M66 68 C72 70 78 74 80 80" stroke-width="1.3"/>
</svg>