<svg xmlns="http://www.w3.org/2000/svg" viewBox="0 0 100 100" fill="none" stroke="#333" stroke-width="1.5" stroke-linecap="round" stroke-linejoin="round">
  <!-- swimming at the beach -->
  <!-- sun -->
  <circle cx="80" cy="16" r="8"/>
  <path d="M80 4 L80 8 M80 24 L80 28 M68 16 L72 16 M88 16 L92 16 M72 8 L74 10 M88 8 L86 10 M72 24 L74 22 M88 24 L86 22" stroke-width="1.2"/>
  <!-- waves/water -->
  <path d="M0 52 C10 48 20 56 30 52 C40 48 50 56 60 52 C70 48 80 56 90 52 C95 50 100 52 100 52" stroke-width="1.5"/>
  <path d="M0 60 C10 56 20 64 30 60 C40 56 50 64 60 60 C70 56 80 64 90 60" stroke-width="1.2"/>
  <path d="M0 68 C10 64 20 72 30 68 C40 64 50 72 60 68 C70 64 80 72 90 68" stroke-width="1"/>
  <!-- beach/sand -->
  <path d="M0 76 C20 72 40 74 60 72 C80 70 100 74 100 76"/>
  <!-- swim ring -->
  <ellipse cx="40" cy="46" rx="12" ry="8"/>
  <ellipse cx="40" cy="46" rx="6" ry="4"/>
  <!-- child in water -->
  <circle cx="40" cy="40" r="5"/>
  <circle cx="38" cy="39" r="1" fill="#333"/>
  <circle cx="42" cy="39" r="1" fill="#333"/>
  <path d="M38 42 Q40 44 42 42" stroke-width="0.8"/>
  <!-- beach umbrella -->
  <path d="M72 38 L72 76" stroke-width="2"/>
  <path d="M56 38 C56 26 64 20 72 20 C80 20 88 26 88 38" stroke-width="1.5"/>
  <path d="M64 22 L64 38" stroke-width="0.8"/>
  <path d="M72 20 L72 38" stroke-width="0.8"/>
  <path d="M80 22 L80 38" stroke-width="0.8"/>
  <!-- shells on beach -->
  <path d="M20 80 C22 78 24 78 26 80 C24 80 22 82 20 80Z" stroke-width="1"/>
  <path d="M56 78 C58 76 60 76 62 78 C60 78 58 80 56 78Z" stroke-width="1"/>
</svg>