<svg xmlns="http://www.w3.org/2000/svg" viewBox="0 0 100 100" fill="none" stroke="#333" stroke-width="1.5" stroke-linecap="round" stroke-linejoin="round">
  <!-- chrysanthemum - many layered petals -->
  <circle cx="50" cy="30" r="4" fill="#333" stroke="#333"/>
  <!-- inner petals -->
  <path d="M50 26 C49 22 48 18 50 16 C52 18 51 22 50 26"/>
  <path d="M54 28 C56 24 60 22 62 24 C60 26 56 26 54 28"/>
  <path d="M54 32 C56 34 60 38 58 40 C56 38 54 36 54 32"/>
  <path d="M46 32 C44 34 40 38 42 40 C44 38 46 36 46 32"/>
  <path d="M46 28 C44 24 40 22 38 24 C40 26 44 26 46 28"/>
  <!-- outer petals (longer) -->
  <path d="M50 26 C48 18 46 10 50 8 C54 10 52 18 50 26"/>
  <path d="M54 27 C60 22 66 16 68 20 C64 22 58 24 54 27"/>
  <path d="M55 31 C62 30 70 28 70 32 C68 34 60 32 55 31"/>
  <path d="M54 34 C58 40 64 46 62 48 C58 46 56 40 54 34"/>
  <path d="M50 36 C50 44 52 50 50 52 C48 50 50 44 50 36"/>
  <path d="M46 34 C42 40 36 46 38 48 C42 46 44 40 46 34"/>
  <path d="M45 31 C38 30 30 28 30 32 C32 34 40 32 45 31"/>
  <path d="M46 27 C40 22 34 16 32 20 C36 22 42 24 46 27"/>
  <!-- stem -->
  <path d="M50 40 L50 86"/>
  <!-- serrated leaves -->
  <path d="M50 58 C42 52 32 50 26 54 C30 56 28 58 32 60 C34 58 38 58 50 62" stroke-width="1.2"/>
  <path d="M50 70 C58 64 68 62 74 66 C70 68 72 70 68 72 C66 70 62 70 50 74" stroke-width="1.2"/>
</svg>