<svg xmlns="http://www.w3.org/2000/svg" viewBox="0 0 100 100" fill="none" stroke="#333" stroke-width="1.5" stroke-linecap="round" stroke-linejoin="round">
  <!-- koinobori (carp streamers) for Children's Day -->
  <!-- pole -->
  <path d="M16 8 L16 92" stroke-width="2.5"/>
  <!-- ball on top -->
  <circle cx="16" cy="8" r="3" fill="#333"/>
  <!-- wind wheel -->
  <path d="M16 14 L12 10 M16 14 L20 10 M16 14 L12 18 M16 14 L20 18"/>
  <!-- large carp (father) -->
  <path d="M20 26 C20 20 30 18 40 18 L60 18 C64 18 68 22 68 26 C68 30 64 34 60 34 L40 34 C30 34 20 32 20 26Z"/>
  <circle cx="28" cy="26" r="3"/>
  <circle cx="28" cy="26" r="1.5" fill="#333"/>
  <path d="M68 20 L76 26 L68 32"/>
  <!-- scales -->
  <path d="M38 20 C40 24 40 28 38 32" stroke-width="0.8"/>
  <path d="M46 18 C48 22 48 30 46 34" stroke-width="0.8"/>
  <path d="M54 18 C56 22 56 30 54 34" stroke-width="0.8"/>
  <!-- medium carp (mother) -->
  <path d="M22 44 C22 40 30 38 38 38 L54 38 C58 38 60 42 60 44 C60 48 58 50 54 50 L38 50 C30 50 22 48 22 44Z"/>
  <circle cx="28" cy="44" r="2.5"/>
  <circle cx="28" cy="44" r="1.2" fill="#333"/>
  <path d="M60 40 L66 44 L60 48"/>
  <path d="M36 40 C38 42 38 46 36 48" stroke-width="0.8"/>
  <path d="M44 38 C46 42 46 48 44 50" stroke-width="0.8"/>
  <!-- small carp (child) -->
  <path d="M24 58 C24 55 30 54 36 54 L48 54 C52 54 54 56 54 58 C54 61 52 63 48 63 L36 63 C30 63 24 61 24 58Z"/>
  <circle cx="30" cy="58" r="2"/>
  <circle cx="30" cy="58" r="1" fill="#333"/>
  <path d="M54 55 L58 58 L54 62"/>
  <!-- streamer strings -->
  <path d="M16 22 L20 26" stroke-width="1"/>
  <path d="M16 38 L22 44" stroke-width="1"/>
  <path d="M16 52 L24 58" stroke-width="1"/>
</svg>