<svg xmlns="http://www.w3.org/2000/svg" viewBox="0 0 100 100" fill="none" stroke="#333" stroke-width="1.5" stroke-linecap="round" stroke-linejoin="round">
  <!-- Autumn leaf viewing - maple leaves -->
  <!-- large maple leaf -->
  <path d="M50 50 L50 40 C48 36 44 32 40 28 L44 32 C40 26 34 22 30 20 L36 24 C34 18 32 12 32 8 L36 16 C38 12 40 6 42 4 L42 14 C44 10 48 8 50 6 C52 8 56 10 58 14 L58 4 C60 6 62 12 64 16 L68 8 C68 12 66 18 64 24 L70 20 C66 22 60 26 56 32 L60 28 C56 32 52 36 50 40"/>
  <!-- leaf veins -->
  <path d="M50 40 L40 28" stroke-width="0.8"/>
  <path d="M50 40 L32 8" stroke-width="0.8"/>
  <path d="M50 40 L50 6" stroke-width="0.8"/>
  <path d="M50 40 L68 8" stroke-width="0.8"/>
  <path d="M50 40 L60 28" stroke-width="0.8"/>
  <!-- stem -->
  <path d="M50 50 L50 60"/>
  <!-- smaller falling leaves -->
  <path d="M20 40 L20 36 C18 34 16 32 14 30 L16 32 C14 28 12 26 12 24 L14 28 C16 26 18 24 20 24 C22 24 24 26 26 28 L28 24 C28 26 26 28 24 32 L26 30 C24 32 22 34 20 36" stroke-width="1"/>
  <path d="M20 40 L20 44"/>
  <path d="M78 52 L78 48 C76 46 74 44 72 42 L74 44 C72 40 70 38 70 36 L72 40 C74 38 76 36 78 36 C80 36 82 38 84 40 L86 36 C86 38 84 40 82 44 L84 42 C82 44 80 46 78 48" stroke-width="1"/>
  <path d="M78 52 L78 56"/>
  <!-- ground with fallen leaves -->
  <path d="M0 80 C20 78 40 82 60 78 C80 76 90 80 100 78" stroke-width="1"/>
  <!-- small leaves on ground -->
  <path d="M16 80 C18 78 20 78 22 80 C20 82 18 82 16 80Z" stroke-width="0.8"/>
  <path d="M50 80 C52 78 54 78 56 80 C54 82 52 82 50 80Z" stroke-width="0.8"/>
  <path d="M76 78 C78 76 80 76 82 78 C80 80 78 80 76 78Z" stroke-width="0.8"/>
</svg>