<svg xmlns="http://www.w3.org/2000/svg" viewBox="0 0 100 100" fill="none" stroke="#333" stroke-width="1.5" stroke-linecap="round" stroke-linejoin="round">
  <!-- Obon - spirit lantern (chouchin) and cucumber/eggplant animals -->
  <!-- lantern -->
  <path d="M42 10 L58 10" stroke-width="2"/>
  <path d="M46 10 L46 14 M54 10 L54 14"/>
  <path d="M46 14 C36 18 32 28 32 36 C32 44 36 52 46 56"/>
  <path d="M54 14 C64 18 68 28 68 36 C68 44 64 52 54 56"/>
  <path d="M46 56 L54 56"/>
  <!-- lantern ribs -->
  <path d="M34 26 L66 26" stroke-width="0.7"/>
  <path d="M32 36 L68 36" stroke-width="0.7"/>
  <path d="M34 46 L66 46" stroke-width="0.7"/>
  <!-- lantern design -->
  <circle cx="50" cy="36" r="6" stroke-width="1"/>
  <!-- fire/candle inside -->
  <path d="M50 32 C48 30 48 28 50 26 C52 28 52 30 50 32" fill="#333"/>
  <!-- cucumber horse (kyuri-uma) -->
  <path d="M20 72 C18 72 14 72 12 70 C14 68 18 68 22 68 L32 68 C34 68 36 70 36 72 C36 74 34 76 32 76 L22 76 C18 76 16 74 20 72Z"/>
  <!-- legs (chopsticks) -->
  <path d="M18 76 L16 86 M24 76 L22 86 M28 76 L26 86 M32 76 L30 86" stroke-width="1.5"/>
  <!-- eggplant cow (nasu-ushi) -->
  <path d="M62 72 C60 68 62 64 66 64 L76 64 C80 64 84 68 82 72 C80 76 76 78 72 78 L68 78 C64 78 62 76 62 72Z"/>
  <!-- legs (chopsticks) -->
  <path d="M66 78 L64 88 M70 78 L68 88 M74 78 L72 88 M78 78 L76 88" stroke-width="1.5"/>
  <!-- ears on nasu -->
  <path d="M66 64 L64 60 M76 64 L78 60" stroke-width="1.2"/>
</svg>