<svg xmlns="http://www.w3.org/2000/svg" viewBox="0 0 100 100" fill="none" stroke="#333" stroke-width="1.5" stroke-linecap="round" stroke-linejoin="round">
  <!-- omochitsuki (mochi making) - usu (mortar) and kine (mallet) -->
  <!-- usu (mortar/bowl) -->
  <path d="M14 56 C14 50 22 44 50 44 C78 44 86 50 86 56"/>
  <path d="M14 56 L10 82 C10 88 28 92 50 92 C72 92 90 88 90 82 L86 56"/>
  <ellipse cx="50" cy="92" rx="40" ry="6" stroke-width="0"/>
  <path d="M10 82 C10 88 28 94 50 94 C72 94 90 88 90 82"/>
  <!-- mochi in mortar -->
  <ellipse cx="50" cy="48" rx="24" ry="6"/>
  <path d="M26 48 C26 44 36 40 50 40 C64 40 74 44 74 48"/>
  <!-- kine (wooden mallet) - raised -->
  <path d="M62 8 L72 38" stroke-width="4" stroke-linecap="round"/>
  <!-- mallet head -->
  <rect x="66" y="32" width="20" height="12" rx="4" transform="rotate(15 76 38)"/>
  <!-- steam/motion lines -->
  <path d="M40 36 C38 32 40 28" stroke-width="1" opacity="0.4"/>
  <path d="M50 34 C50 30 50 26" stroke-width="1" opacity="0.4"/>
  <path d="M60 36 C62 32 60 28" stroke-width="1" opacity="0.4"/>
  <!-- wood grain on mortar -->
  <path d="M20 62 C22 68 24 74 22 80" stroke-width="0.8" opacity="0.3"/>
  <path d="M40 58 C40 66 38 74 38 82" stroke-width="0.8" opacity="0.3"/>
  <path d="M60 58 C60 66 62 74 62 82" stroke-width="0.8" opacity="0.3"/>
  <path d="M78 62 C76 68 76 74 78 80" stroke-width="0.8" opacity="0.3"/>
</svg>
