<svg xmlns="http://www.w3.org/2000/svg" viewBox="0 0 100 100" fill="none" stroke="#333" stroke-width="1.5" stroke-linecap="round" stroke-linejoin="round">
  <!-- sazanka (camellia sasanqua) - 5 rounded petals, yellow stamens -->
  <!-- petals -->
  <path d="M50 16 C42 22 38 32 42 40 C44 42 48 42 50 40 C52 42 56 42 58 40 C62 32 58 22 50 16"/>
  <path d="M58 40 C64 36 74 34 78 40 C80 46 74 52 66 50 C62 48 60 44 58 40"/>
  <path d="M66 50 C68 58 66 68 60 72 C54 74 50 68 50 60 C50 56 54 52 66 50"/>
  <path d="M50 60 C46 56 42 52 34 50 C28 48 24 54 26 60 C28 66 36 72 42 72 C48 72 50 68 50 60"/>
  <path d="M34 50 C30 44 28 38 32 34 C36 30 42 32 44 38 C46 42 42 46 34 50"/>
  <!-- stamens (center) -->
  <circle cx="50" cy="46" r="7" stroke-width="1"/>
  <line x1="50" y1="40" x2="50" y2="36" stroke-width="1"/>
  <line x1="54" y1="41" x2="57" y2="38" stroke-width="1"/>
  <line x1="56" y1="46" x2="60" y2="46" stroke-width="1"/>
  <line x1="46" y1="41" x2="43" y2="38" stroke-width="1"/>
  <line x1="44" y1="46" x2="40" y2="46" stroke-width="1"/>
  <circle cx="50" cy="36" r="1.2" fill="#333"/>
  <circle cx="57" cy="38" r="1.2" fill="#333"/>
  <circle cx="60" cy="46" r="1.2" fill="#333"/>
  <circle cx="43" cy="38" r="1.2" fill="#333"/>
  <circle cx="40" cy="46" r="1.2" fill="#333"/>
  <!-- stem and leaf -->
  <path d="M50 60 L50 90" stroke-width="2"/>
  <path d="M50 72 C40 68 32 70 28 76 C34 76 42 74 50 72" fill="none"/>
  <path d="M50 80 C60 76 68 78 72 84 C66 84 58 82 50 80" fill="none"/>
</svg>
