<svg xmlns="http://www.w3.org/2000/svg" viewBox="0 0 100 100" fill="none" stroke="#333" stroke-width="1.5" stroke-linecap="round" stroke-linejoin="round">
  <!-- daffodil/narcissus - 6 petals with trumpet center -->
  <!-- 6 petals -->
  <path d="M50 18 C46 12 44 6 50 4 C56 6 54 12 50 18"/>
  <path d="M56 20 C62 16 68 12 70 16 C68 20 62 22 56 22"/>
  <path d="M56 28 C62 28 68 30 68 34 C64 36 60 32 56 28"/>
  <path d="M50 32 C54 38 56 44 50 46 C44 44 46 38 50 32"/>
  <path d="M44 28 C38 28 32 30 32 34 C36 36 40 32 44 28"/>
  <path d="M44 20 C38 16 32 12 30 16 C32 20 38 22 44 22"/>
  <!-- trumpet/corona -->
  <ellipse cx="50" cy="25" rx="8" ry="6"/>
  <ellipse cx="50" cy="25" rx="5" ry="3.5" stroke-width="1"/>
  <!-- stem -->
  <path d="M50 38 C50 48 48 58 46 68 C44 76 42 82 40 88"/>
  <!-- long narrow leaves -->
  <path d="M42 78 C36 60 32 44 34 28" stroke-width="1.3"/>
  <path d="M42 78 C48 62 52 46 50 30" stroke-width="1.3"/>
</svg>