<svg xmlns="http://www.w3.org/2000/svg" viewBox="0 0 100 100" fill="none" stroke="#333" stroke-width="1.5" stroke-linecap="round" stroke-linejoin="round">
  <!-- violet - 5 irregular petals, small flower -->
  <!-- top 2 petals -->
  <path d="M50 30 C46 24 42 18 44 14 C48 14 50 20 50 26"/>
  <path d="M50 30 C54 24 58 18 56 14 C52 14 50 20 50 26"/>
  <!-- side petals -->
  <path d="M50 30 C44 28 36 26 34 30 C36 34 42 32 50 30"/>
  <path d="M50 30 C56 28 64 26 66 30 C64 34 58 32 50 30"/>
  <!-- bottom petal (largest) -->
  <path d="M50 30 C44 34 40 40 42 46 C46 48 50 42 50 36"/>
  <path d="M50 30 C56 34 60 40 58 46 C54 48 50 42 50 36"/>
  <!-- center detail -->
  <circle cx="50" cy="30" r="2" stroke-width="1"/>
  <path d="M49 32 L50 36 L51 32" stroke-width="0.8"/>
  <!-- stem - curved -->
  <path d="M50 42 C48 52 46 62 48 82"/>
  <!-- heart-shaped leaves -->
  <path d="M48 64 C40 58 30 58 28 64 C30 70 38 70 46 66" stroke-width="1.2"/>
  <path d="M48 64 L38 60" stroke-width="0.8"/>
  <path d="M48 74 C54 68 64 68 66 74 C64 80 56 80 50 76" stroke-width="1.2"/>
</svg>