<svg xmlns="http://www.w3.org/2000/svg" viewBox="0 0 100 100" fill="none" stroke="#333" stroke-width="1.5" stroke-linecap="round" stroke-linejoin="round">
  <!-- camellia - round layered petals with prominent stamens -->
  <!-- outer petals -->
  <path d="M50 16 C40 16 32 22 30 30 C32 28 38 24 50 22"/>
  <path d="M50 16 C60 16 68 22 70 30 C68 28 62 24 50 22"/>
  <path d="M30 30 C28 38 30 44 36 48 C34 44 36 38 42 34"/>
  <path d="M70 30 C72 38 70 44 64 48 C66 44 64 38 58 34"/>
  <path d="M36 48 C42 52 48 52 50 50 C52 52 58 52 64 48"/>
  <!-- inner petal detail -->
  <path d="M42 22 C40 28 40 34 44 38" stroke-width="1"/>
  <path d="M58 22 C60 28 60 34 56 38" stroke-width="1"/>
  <!-- stamens in center -->
  <circle cx="50" cy="32" r="6"/>
  <path d="M46 28 L44 24" stroke-width="1"/><circle cx="44" cy="23" r="1" fill="#333"/>
  <path d="M50 26 L50 22" stroke-width="1"/><circle cx="50" cy="21" r="1" fill="#333"/>
  <path d="M54 28 L56 24" stroke-width="1"/><circle cx="56" cy="23" r="1" fill="#333"/>
  <path d="M48 30 L46 26" stroke-width="1"/>
  <path d="M52 30 L54 26" stroke-width="1"/>
  <!-- stem -->
  <path d="M50 50 L50 86"/>
  <!-- thick glossy leaves -->
  <path d="M50 62 C42 56 30 54 26 60 C30 64 28 68 34 70 C40 66 46 64 50 66" stroke-width="1.3"/>
  <path d="M26 60 L50 62" stroke-width="0.8"/>
  <path d="M50 74 C58 68 70 66 74 72 C70 76 72 80 66 82 C60 78 54 76 50 78" stroke-width="1.3"/>
  <path d="M74 72 L50 74" stroke-width="0.8"/>
</svg>