<svg xmlns="http://www.w3.org/2000/svg" viewBox="0 0 100 100" fill="none" stroke="#333" stroke-width="1.5" stroke-linecap="round" stroke-linejoin="round">
  <!-- tulip - cup-shaped flower -->
  <path d="M42 44 C42 28 46 16 50 12 C54 16 58 28 58 44"/>
  <path d="M38 44 C38 32 42 20 46 14"/>
  <path d="M62 44 C62 32 58 20 54 14"/>
  <path d="M38 44 Q50 50 62 44"/>
  <!-- petal lines -->
  <path d="M50 14 L50 44" stroke-width="1" opacity="0.5"/>
  <!-- stem -->
  <path d="M50 44 L50 84"/>
  <!-- leaves -->
  <path d="M50 58 C42 52 30 52 26 60 C32 58 40 58 50 62" stroke-width="1.3"/>
  <path d="M50 66 C58 60 70 60 74 68 C68 66 60 66 50 70" stroke-width="1.3"/>
</svg>