<svg xmlns="http://www.w3.org/2000/svg" viewBox="0 0 100 100" fill="none" stroke="#333" stroke-width="1.5" stroke-linecap="round" stroke-linejoin="round">
  <!-- plum blossom - 5 round petals on branch -->
  <!-- 5 round petals -->
  <circle cx="50" cy="20" r="8"/>
  <circle cx="58" cy="28" r="8"/>
  <circle cx="55" cy="38" r="8"/>
  <circle cx="45" cy="38" r="8"/>
  <circle cx="42" cy="28" r="8"/>
  <!-- center -->
  <circle cx="50" cy="30" r="4"/>
  <!-- stamens -->
  <path d="M48 28 L46 24" stroke-width="1"/><circle cx="46" cy="23" r="1" fill="#333"/>
  <path d="M52 28 L54 24" stroke-width="1"/><circle cx="54" cy="23" r="1" fill="#333"/>
  <path d="M50 32 L50 36" stroke-width="1"/><circle cx="50" cy="37" r="1" fill="#333"/>
  <path d="M48 30 L44 32" stroke-width="1"/><circle cx="43" cy="32" r="1" fill="#333"/>
  <path d="M52 30 L56 32" stroke-width="1"/><circle cx="57" cy="32" r="1" fill="#333"/>
  <!-- branch (characteristic of ume) -->
  <path d="M50 42 C48 50 40 58 30 66 C24 72 20 80 18 88" stroke-width="2.5"/>
  <path d="M40 58 C46 64 50 72 48 82" stroke-width="2"/>
  <!-- small bud on branch -->
  <circle cx="34" cy="64" r="3"/>
  <path d="M34 67 L34 70" stroke-width="1.5"/>
</svg>