<svg xmlns="http://www.w3.org/2000/svg" viewBox="0 0 100 100" fill="none" stroke="#333" stroke-width="1.5" stroke-linecap="round" stroke-linejoin="round">
  <!-- lily - large trumpet flower with curling petals -->
  <!-- 3 outer petals curving outward -->
  <path d="M50 18 C44 22 38 30 36 38 C34 42 36 40 40 36 C42 32 46 26 50 22"/>
  <path d="M50 18 C56 22 62 30 64 38 C66 42 64 40 60 36 C58 32 54 26 50 22"/>
  <path d="M50 22 C50 28 52 36 56 42 C58 46 56 44 52 40 C50 36 48 30 48 24"/>
  <!-- 3 inner petals -->
  <path d="M50 20 C46 24 42 30 42 36" stroke-width="1"/>
  <path d="M50 20 C54 24 58 30 58 36" stroke-width="1"/>
  <path d="M50 24 C50 30 50 34 50 38" stroke-width="1"/>
  <!-- stamens -->
  <path d="M46 36 L42 44" stroke-width="1"/>
  <path d="M54 36 L58 44" stroke-width="1"/>
  <path d="M50 38 L50 46" stroke-width="1"/>
  <circle cx="42" cy="44" r="1.5" fill="#333"/>
  <circle cx="58" cy="44" r="1.5" fill="#333"/>
  <circle cx="50" cy="46" r="1.5" fill="#333"/>
  <!-- stem -->
  <path d="M50 38 L50 86"/>
  <!-- long narrow leaves -->
  <path d="M50 54 C44 50 34 50 28 54 C34 56 36 58 34 62" stroke-width="1.2"/>
  <path d="M50 66 C56 62 66 62 72 66 C66 68 64 70 66 74" stroke-width="1.2"/>
</svg>